# xmcd CD database file
#
# Track frame offsets:
#	150
#	24612
#	49574
#	101939
#	146011
#	171404
#	197678
#	223016
#	242039
#
# Disc length: 3674 seconds
#
# Revision: 0
# Processed by: cddbd v1.5.1PL2 Copyright (c) Steve Scherf et al.
# Submitted via: CDex 1.60beta1-cs1
#
DISCID=850e5809
DTITLE=Jean-Marc Staehle - In the Heart of Oneself
DYEAR=2005
DGENRE=New Age
TTITLE0=Softness of living
TTITLE1=Pleasure of the directions
TTITLE2=The Interior Source
TTITLE3=Divine gasoline
TTITLE4=Femininity
TTITLE5=Raising sun
TTITLE6=Moonlight
TTITLE7=The Master of Wisdom
TTITLE8=Waves of Love
EXTD=YEAR: 2005
EXTT0=
EXTT1=
EXTT2=
EXTT3=
EXTT4=
EXTT5=
EXTT6=
EXTT7=
EXTT8=
PLAYORDER=
